<svg width="167" height="55" viewBox="0 0 167 55" fill="none" xmlns="http://www.w3.org/2000/svg">
<path d="M96.2104 2.62036C97.8472 6.73073 100.302 7.19315 100.302 10.7383C100.302 12.9477 98.7679 14.6946 96.2104 14.6946C93.6019 14.6946 92.1697 12.9477 92.1697 10.7897C92.1185 7.75833 94.0622 6.83349 96.2104 2.62036Z" fill="#CF3339"/>
<path d="M24.6536 29.8002C24.6536 34.9382 20.5106 39.0999 15.3957 39.0999C10.2809 39.0999 6.13783 34.9382 6.13783 29.8002C6.13783 24.6622 10.2809 20.5005 15.3957 20.5005C20.5106 20.5005 24.6536 24.6622 24.6536 29.8002ZM26.1369 45.4196H33.2977V0H26.1369V18.7536C23.3749 16.0304 19.5899 14.3349 15.3957 14.3349C6.90505 14.3349 0 21.2712 0 29.8002C0 38.3292 6.90505 45.2141 15.3957 45.2141C19.5899 45.2141 23.3749 43.5186 26.1369 40.7954V45.4196Z" fill="#FF6C0E"/>
<path d="M66.6465 25.587L44.3969 34.4757C45.5221 36.3253 47.0054 37.5585 48.8468 38.1236C50.6881 38.7402 52.7341 38.5861 54.8823 37.7126C57.4909 36.685 59.3322 34.8867 60.4575 32.3177L67.3626 32.7288C66.7488 35.4005 65.6235 37.6098 63.9868 39.4081C62.35 41.2064 60.1506 42.6964 57.3374 43.7754C52.9898 45.5223 48.9491 45.5737 45.1129 43.9295C41.2768 42.2854 38.5659 39.4081 36.9292 35.2978C35.2413 31.0846 35.1901 27.0256 36.8269 23.1208C38.4125 19.2673 41.2768 16.4928 45.3687 14.8487C49.7163 13.1017 53.8082 13.1017 57.6443 14.7973C61.4805 16.4928 64.2936 19.627 66.135 24.1998L66.6465 25.587ZM58.0535 22.2473C56.9794 20.8601 55.5472 19.9352 53.757 19.5242C52.018 19.1132 50.2278 19.2159 48.4376 19.9866C46.4939 20.7573 44.9595 22.0418 43.9365 23.7373C43.2716 24.8163 42.9136 26.3577 42.8113 28.4129L58.0535 22.2473Z" fill="#FF6C0E"/>
<path d="M89.5611 18.9078L84.9577 23.532C83.1164 21.6823 81.3773 20.7575 79.894 20.7575C79.0756 20.7575 78.4107 20.9116 77.9504 21.2713C77.49 21.6309 77.2343 22.0419 77.2343 22.6071C77.2343 23.0182 77.3877 23.3778 77.6946 23.7375C78.0015 24.0971 78.7176 24.5082 79.894 25.1247L82.6049 26.512C85.4692 27.9506 87.4128 29.3892 88.487 30.8279C89.5611 32.3179 90.0726 34.0134 90.0726 36.0172C90.0726 38.6376 89.1007 40.8469 87.1571 42.5938C85.2135 44.3407 82.656 45.2142 79.4337 45.2142C75.1372 45.2142 71.7103 43.5186 69.1017 40.1276L73.6539 35.1438C74.5234 36.1713 75.5464 36.9934 76.7228 37.61C77.8992 38.2265 78.9222 38.5348 79.8429 38.5348C80.8147 38.5348 81.6331 38.2779 82.1957 37.8155C82.8095 37.3531 83.1164 36.7879 83.1164 36.1713C83.1164 35.041 82.0423 33.9106 79.894 32.8317L77.3877 31.5986C72.6309 29.1837 70.227 26.1523 70.227 22.5044C70.227 20.1409 71.1476 18.1371 72.9378 16.4929C74.728 14.8488 77.0297 13.9753 79.8429 13.9753C81.7865 13.9753 83.5767 14.3864 85.2646 15.2598C86.9525 16.1333 88.3847 17.315 89.5611 18.9078Z" fill="#FF6C0E"/>
<path d="M102.962 15.5168H110.379V18.5482C112.066 17.1096 113.601 16.1333 114.931 15.5682C116.312 15.003 117.693 14.7461 119.125 14.7461C122.04 14.7461 124.547 15.7737 126.593 17.8289C128.332 19.5758 129.15 22.1448 129.15 25.5872V45.2142H121.836V32.2152C121.836 28.67 121.682 26.3065 121.376 25.1762C121.069 23.9944 120.506 23.121 119.739 22.5044C118.972 21.8879 118 21.5796 116.823 21.5796C115.34 21.5796 114.061 22.0934 112.987 23.0696C111.913 24.0972 111.146 25.4844 110.737 27.2313C110.532 28.1562 110.43 30.16 110.43 33.2428V45.1628H103.013V15.5168H102.962Z" fill="#FF6C0E"/>
<path d="M131.912 4.05908H139.329V27.7451L150.223 15.5167H159.532L146.796 29.7489L161.016 45.2142H151.809L139.278 31.5472V45.2142H131.861V4.05908H131.912Z" fill="#FF6C0E"/>
<path d="M99.8931 15.979V45.214H92.63V15.979C93.7041 18.1369 98.5632 18.3938 99.8931 15.979Z" fill="#FF6C0E"/>
<path d="M97.0799 53.075C97.0799 53.1264 97.0799 53.1777 97.0799 53.2291C97.0799 53.2805 97.0799 53.2805 97.0799 53.3319C97.0799 53.3833 97.0799 53.3833 97.0288 53.3833C97.0288 53.3833 96.9776 53.4346 96.9776 53.486C96.9265 53.5374 96.8753 53.5888 96.773 53.6402C96.6707 53.6915 96.5684 53.7429 96.415 53.8457C96.2616 53.8971 96.1081 53.9484 95.9035 53.9998C95.6989 54.0512 95.4943 54.0512 95.2897 54.0512C94.8805 54.0512 94.5225 53.9998 94.2156 53.8457C93.9087 53.6915 93.653 53.5374 93.3972 53.2805C93.1926 53.0236 92.988 52.7153 92.8858 52.3557C92.7835 51.996 92.6812 51.5336 92.6812 51.0712C92.6812 50.5574 92.7323 50.1463 92.8858 49.7353C92.988 49.3243 93.1926 49.016 93.4484 48.7591C93.7041 48.5022 93.9599 48.2967 94.2668 48.1425C94.5737 47.9884 94.9317 47.937 95.3409 47.937C95.4943 47.937 95.6989 47.937 95.8524 47.9884C96.0058 48.0398 96.1593 48.0398 96.3127 48.0911C96.4662 48.1425 96.5684 48.1939 96.6707 48.2453C96.773 48.2967 96.8753 48.348 96.8753 48.3994C96.9265 48.4508 96.9265 48.4508 96.9776 48.5022C96.9776 48.5022 96.9776 48.5536 97.0288 48.5536C97.0288 48.6049 97.0288 48.6049 97.0288 48.6563C97.0288 48.7077 97.0288 48.7591 97.0288 48.8105C97.0288 48.8618 97.0288 48.9132 97.0288 48.9646C97.0288 49.016 97.0288 49.0674 96.9776 49.0674C96.9776 49.1187 96.9265 49.1187 96.9265 49.1187H96.8753C96.8242 49.1187 96.773 49.0674 96.6707 49.016C96.5684 48.9646 96.5173 48.9132 96.3638 48.8105C96.2616 48.7591 96.1081 48.6563 95.9035 48.6049C95.6989 48.5536 95.4943 48.5022 95.2897 48.5022C95.034 48.5022 94.7782 48.5536 94.5736 48.6563C94.3691 48.7591 94.1645 48.9132 94.011 49.1187C93.8576 49.3243 93.7553 49.5812 93.653 49.8894C93.5507 50.1977 93.5507 50.5574 93.5507 50.917C93.5507 51.2767 93.6018 51.6363 93.653 51.9446C93.7553 52.2529 93.8576 52.5098 94.011 52.6639C94.1645 52.8695 94.3691 53.0236 94.5736 53.1264C94.7782 53.2291 95.034 53.2805 95.3409 53.2805C95.5966 53.2805 95.8012 53.2291 95.9547 53.1777C96.1593 53.1264 96.2616 53.075 96.415 52.9722C96.5173 52.9208 96.6196 52.8181 96.7219 52.7667C96.8242 52.7153 96.8753 52.6639 96.9265 52.6639H96.9776L97.0288 52.7153C97.0288 52.7667 97.0288 52.7667 97.0288 52.8181C97.0799 52.9722 97.0799 53.0236 97.0799 53.075Z" fill="#CF3339"/>
<path d="M103.627 51.6878C103.627 52.0475 103.576 52.4071 103.473 52.664C103.371 52.9723 103.218 53.1778 103.013 53.3833C102.809 53.5889 102.553 53.743 102.297 53.8458C101.99 53.9485 101.683 53.9999 101.325 53.9999C101.018 53.9999 100.711 53.9485 100.405 53.8458C100.098 53.743 99.8931 53.5889 99.6885 53.4347C99.4839 53.2292 99.3305 53.0237 99.2282 52.7154C99.1259 52.4071 99.0747 52.0988 99.0747 51.7392V47.9885V47.9371L99.1259 47.8857C99.177 47.8857 99.177 47.8857 99.2282 47.8343C99.2793 47.8343 99.3304 47.8343 99.4327 47.8343C99.4839 47.8343 99.5862 47.8343 99.6373 47.8343C99.6885 47.8343 99.7396 47.8343 99.7396 47.8857C99.7908 47.8857 99.7908 47.9371 99.7908 47.9371V47.9885V51.6364C99.7908 51.8933 99.8419 52.1502 99.8931 52.3557C99.9442 52.5613 100.047 52.7154 100.2 52.8695C100.353 53.0237 100.507 53.1264 100.66 53.1778C100.865 53.2292 101.069 53.2806 101.274 53.2806C101.53 53.2806 101.734 53.2292 101.888 53.1778C102.092 53.1264 102.246 53.0237 102.348 52.8695C102.451 52.7154 102.553 52.5613 102.655 52.3557C102.706 52.1502 102.757 51.8933 102.757 51.6364V47.9371V47.8857L102.809 47.8343C102.86 47.8343 102.86 47.8343 102.911 47.783C102.962 47.783 103.013 47.783 103.115 47.783C103.167 47.783 103.269 47.783 103.32 47.783C103.371 47.783 103.422 47.783 103.422 47.8343C103.473 47.8343 103.473 47.8857 103.473 47.8857V47.9371V51.6878H103.627Z" fill="#CF3339"/>
<path d="M109.356 52.253C109.356 52.5613 109.304 52.7668 109.202 53.0237C109.1 53.2292 108.946 53.4348 108.793 53.5889C108.639 53.743 108.384 53.8458 108.128 53.9485C107.872 54.0513 107.617 54.0513 107.31 54.0513C107.105 54.0513 106.9 54.0513 106.747 53.9999C106.594 53.9485 106.44 53.9485 106.287 53.8972C106.133 53.8458 106.031 53.7944 105.929 53.743C105.826 53.6916 105.775 53.6403 105.724 53.5889C105.673 53.5375 105.673 53.4861 105.622 53.4347C105.622 53.3834 105.571 53.2806 105.571 53.2292C105.571 53.1779 105.571 53.1265 105.571 53.0751C105.571 53.0237 105.571 52.9723 105.622 52.9723C105.622 52.921 105.673 52.921 105.673 52.921H105.724C105.775 52.921 105.826 52.9723 105.929 53.0237C106.031 53.0751 106.133 53.1265 106.235 53.1779C106.338 53.2292 106.491 53.2806 106.696 53.332C106.849 53.3834 107.054 53.4347 107.31 53.4347C107.463 53.4347 107.617 53.4348 107.77 53.3834C107.923 53.332 108.026 53.2806 108.128 53.1779C108.23 53.0751 108.333 52.9723 108.384 52.8696C108.435 52.7668 108.486 52.6127 108.486 52.4585C108.486 52.3044 108.435 52.1503 108.384 51.9961C108.281 51.8934 108.179 51.7906 108.077 51.6878C107.975 51.5851 107.821 51.5337 107.668 51.4309C107.514 51.3796 107.361 51.2768 107.156 51.174C107.003 51.0713 106.798 51.0199 106.645 50.9171C106.491 50.8144 106.338 50.7116 106.235 50.5575C106.133 50.4033 106.031 50.2492 105.929 50.0951C105.826 49.9409 105.826 49.684 105.826 49.4785C105.826 49.2216 105.877 49.0161 105.98 48.8106C106.082 48.6051 106.184 48.4509 106.338 48.2968C106.491 48.1426 106.696 48.0399 106.9 47.9885C107.105 47.9371 107.361 47.8857 107.617 47.8857C107.77 47.8857 107.872 47.8857 108.026 47.9371C108.179 47.9371 108.281 47.9885 108.384 48.0399C108.486 48.0913 108.588 48.1426 108.691 48.194C108.793 48.2454 108.844 48.2968 108.895 48.2968C108.946 48.3482 108.946 48.3482 108.946 48.3482V48.3995C108.946 48.3995 108.946 48.4509 108.946 48.5023C108.946 48.5537 108.946 48.6051 108.946 48.6564C108.946 48.7078 108.946 48.7592 108.946 48.8106C108.946 48.862 108.946 48.9133 108.946 48.9133C108.946 48.9647 108.946 48.9647 108.895 48.9647H108.844C108.793 48.9647 108.742 48.9647 108.691 48.9133C108.639 48.862 108.537 48.8106 108.435 48.7592C108.333 48.7078 108.23 48.6564 108.077 48.6051C107.923 48.5537 107.77 48.5537 107.617 48.5537C107.463 48.5537 107.31 48.5537 107.156 48.6051C107.054 48.6564 106.952 48.7078 106.849 48.7592C106.747 48.8106 106.696 48.9133 106.645 49.0161C106.594 49.1189 106.594 49.2216 106.594 49.3244C106.594 49.4785 106.645 49.6327 106.696 49.7354C106.798 49.8382 106.9 49.9409 107.003 50.0437C107.156 50.1465 107.258 50.1978 107.463 50.3006C107.617 50.4033 107.77 50.4547 107.975 50.5575C108.128 50.6602 108.333 50.7116 108.486 50.8144C108.639 50.9171 108.793 51.0199 108.946 51.174C109.1 51.3282 109.202 51.4309 109.253 51.6365C109.356 51.7906 109.356 51.9961 109.356 52.253Z" fill="#CF3339"/>
<path d="M115.186 48.2454C115.186 48.2968 115.186 48.3482 115.186 48.3996C115.186 48.4509 115.187 48.5023 115.135 48.5023C115.135 48.5537 115.084 48.5537 115.084 48.5537H115.033H113.345V53.7944V53.8458L113.294 53.8972C113.243 53.8972 113.243 53.8972 113.192 53.9486C113.141 53.9486 113.089 53.9486 112.987 53.9486C112.936 53.9486 112.834 53.9486 112.783 53.9486C112.731 53.9486 112.68 53.9486 112.68 53.8972C112.629 53.8972 112.629 53.8972 112.629 53.8458V53.7944V48.6051H110.941H110.89L110.839 48.5537C110.839 48.5023 110.839 48.5023 110.788 48.4509C110.788 48.3996 110.788 48.3482 110.788 48.2968C110.788 48.2454 110.788 48.194 110.788 48.1427C110.788 48.0913 110.788 48.0399 110.839 48.0399C110.839 47.9885 110.89 47.9885 110.89 47.9885H110.941H115.135H115.186L115.238 48.0399C115.238 48.0913 115.238 48.0913 115.289 48.1427C115.34 48.194 115.186 48.194 115.186 48.2454Z" fill="#CF3339"/>
<path d="M121.734 50.8656C121.734 51.328 121.682 51.7905 121.58 52.2015C121.478 52.6125 121.273 52.9208 121.069 53.1777C120.864 53.4346 120.557 53.6401 120.199 53.7943C119.841 53.9484 119.432 53.9998 118.972 53.9998C118.511 53.9998 118.153 53.9484 117.795 53.7943C117.488 53.6401 117.181 53.486 116.977 53.2291C116.772 52.9722 116.619 52.6639 116.516 52.2529C116.414 51.8932 116.363 51.4308 116.363 50.917C116.363 50.4546 116.414 49.9922 116.516 49.6325C116.619 49.2215 116.823 48.9132 117.028 48.6563C117.232 48.3994 117.539 48.1939 117.897 48.0397C118.255 47.8856 118.665 47.8342 119.125 47.8342C119.585 47.8342 119.943 47.8856 120.301 48.0397C120.608 48.1939 120.915 48.348 121.12 48.6049C121.324 48.8618 121.478 49.1701 121.631 49.5811C121.682 49.9408 121.734 50.3518 121.734 50.8656ZM120.915 50.917C120.915 50.5573 120.864 50.2491 120.813 49.9408C120.762 49.6325 120.659 49.3756 120.506 49.1701C120.353 48.9646 120.199 48.8104 119.943 48.6563C119.688 48.5535 119.432 48.4508 119.074 48.4508C118.716 48.4508 118.46 48.5022 118.204 48.6563C117.949 48.8104 117.795 48.9646 117.642 49.1701C117.488 49.3756 117.386 49.6325 117.335 49.9408C117.284 50.2491 117.232 50.5573 117.232 50.8656C117.232 51.2253 117.284 51.5336 117.335 51.8418C117.386 52.1501 117.488 52.407 117.642 52.6125C117.795 52.8181 117.949 52.9722 118.204 53.1263C118.46 53.2291 118.716 53.2805 119.074 53.2805C119.432 53.2805 119.739 53.2291 119.943 53.075C120.199 52.9208 120.353 52.7667 120.506 52.5612C120.659 52.3556 120.762 52.0987 120.813 51.7905C120.864 51.4822 120.915 51.2253 120.915 50.917Z" fill="#CF3339"/>
<path d="M130.48 53.7943V53.8456L130.429 53.897C130.378 53.897 130.378 53.897 130.327 53.9484C130.275 53.9484 130.224 53.9484 130.122 53.9484C130.071 53.9484 129.968 53.9484 129.917 53.9484C129.866 53.9484 129.815 53.9484 129.815 53.897C129.764 53.897 129.764 53.897 129.764 53.8456V53.7943V48.5535L127.667 53.8456C127.667 53.8456 127.667 53.897 127.616 53.897L127.565 53.9484C127.513 53.9484 127.513 53.9484 127.462 53.9484C127.411 53.9484 127.36 53.9484 127.309 53.9484C127.258 53.9484 127.206 53.9484 127.155 53.9484C127.104 53.9484 127.053 53.9484 127.053 53.897C127.002 53.897 127.002 53.897 127.002 53.8456L126.951 53.7943L124.905 48.5022V53.7429V53.7943L124.854 53.8456C124.803 53.8456 124.802 53.8456 124.751 53.897C124.7 53.897 124.649 53.897 124.547 53.897C124.496 53.897 124.393 53.897 124.342 53.897C124.291 53.897 124.24 53.897 124.24 53.8456C124.189 53.8456 124.189 53.8456 124.189 53.7943V53.7429V48.2453C124.189 48.0911 124.24 48.0397 124.291 47.9884C124.342 47.937 124.444 47.8856 124.547 47.8856H125.058C125.161 47.8856 125.263 47.8856 125.314 47.937C125.365 47.937 125.467 47.9884 125.519 48.0397C125.57 48.0911 125.621 48.1425 125.672 48.1939C125.723 48.2453 125.723 48.348 125.774 48.3994L127.513 52.7667L129.304 48.3994C129.355 48.2966 129.355 48.2453 129.406 48.1425C129.457 48.0911 129.508 48.0397 129.559 47.9884C129.61 47.937 129.662 47.937 129.713 47.8856C129.764 47.8856 129.866 47.8342 129.917 47.8342H130.429C130.48 47.8342 130.531 47.8342 130.582 47.8342C130.633 47.8342 130.685 47.8856 130.685 47.8856C130.685 47.8856 130.736 47.937 130.736 47.9884C130.736 48.0397 130.787 48.0911 130.787 48.1425V53.7943H130.48Z" fill="#CF3339"/>
<path d="M136.925 53.7944V53.8458L136.874 53.8972C136.822 53.8972 136.822 53.8972 136.771 53.9485C136.72 53.9485 136.669 53.9485 136.567 53.9485C136.516 53.9485 136.413 53.9485 136.362 53.9485C136.311 53.9485 136.26 53.9485 136.26 53.8972C136.209 53.8972 136.209 53.8972 136.209 53.8458C136.209 53.7944 136.209 53.7944 136.209 53.7944V48.0399V47.9885L136.26 47.9371C136.311 47.9371 136.311 47.9371 136.362 47.8857C136.413 47.8857 136.464 47.8857 136.567 47.8857C136.669 47.8857 136.72 47.8857 136.771 47.8857C136.822 47.8857 136.874 47.8857 136.874 47.9371C136.925 47.9371 136.925 47.9885 136.925 47.9885V48.0399V53.7944Z" fill="#CF3339"/>
<path d="M144.085 50.8143C144.085 51.3281 144.034 51.7905 143.881 52.2015C143.727 52.6126 143.574 52.9208 143.318 53.1777C143.062 53.4346 142.756 53.6402 142.398 53.7429C142.039 53.8457 141.579 53.9484 141.068 53.9484H139.789C139.738 53.9484 139.635 53.9484 139.584 53.8971C139.533 53.8457 139.482 53.7429 139.482 53.6402V48.2453C139.482 48.1425 139.533 48.0398 139.584 47.9884C139.635 47.937 139.738 47.937 139.789 47.937H141.17C141.681 47.937 142.142 47.9884 142.5 48.1425C142.858 48.2967 143.165 48.4508 143.42 48.7077C143.676 48.9646 143.83 49.2729 143.983 49.6325C144.034 49.9922 144.085 50.3519 144.085 50.8143ZM143.267 50.8657C143.267 50.5574 143.216 50.2491 143.165 49.9408C143.062 49.6839 142.96 49.427 142.807 49.2215C142.653 49.016 142.398 48.8618 142.142 48.7591C141.886 48.6563 141.528 48.6049 141.119 48.6049H140.3V53.2805H141.119C141.477 53.2805 141.835 53.2291 142.091 53.1264C142.346 53.0236 142.551 52.8695 142.756 52.6639C142.909 52.4584 143.062 52.2015 143.165 51.8932C143.267 51.585 143.267 51.2767 143.267 50.8657Z" fill="#CF3339"/>
<path d="M149.609 53.5888C149.609 53.6402 149.609 53.6915 149.609 53.7429C149.609 53.7943 149.609 53.7943 149.558 53.8457C149.558 53.8971 149.507 53.8971 149.507 53.8971H149.456H146.592C146.541 53.8971 146.438 53.8971 146.387 53.8457C146.336 53.7943 146.285 53.6915 146.285 53.5888V48.2453C146.285 48.1425 146.336 48.0398 146.387 47.9884C146.438 47.937 146.541 47.937 146.592 47.937H149.456H149.507L149.558 47.9884C149.558 48.0398 149.558 48.0398 149.609 48.0911C149.609 48.1425 149.609 48.1939 149.609 48.2453C149.609 48.2967 149.609 48.348 149.609 48.3994C149.609 48.4508 149.609 48.4508 149.558 48.5022C149.558 48.5536 149.507 48.5536 149.507 48.5536H149.456H147.103V50.4546H149.098H149.149L149.2 50.506C149.2 50.506 149.2 50.5574 149.251 50.6088C149.251 50.6601 149.251 50.7115 149.251 50.7629C149.251 50.8143 149.251 50.8657 149.251 50.917C149.251 50.9684 149.251 50.9684 149.2 51.0198L149.149 51.0712H149.098H147.103V53.2291H149.507H149.558L149.609 53.2805C149.609 53.3319 149.661 53.3319 149.661 53.3833C149.609 53.486 149.609 53.5374 149.609 53.5888Z" fill="#CF3339"/>
<path d="M156.259 53.6401C156.259 53.6915 156.31 53.7429 156.31 53.7943C156.31 53.8456 156.31 53.8457 156.259 53.897C156.259 53.897 156.208 53.9484 156.156 53.9484C156.105 53.9484 156.003 53.9484 155.952 53.9484C155.901 53.9484 155.798 53.9484 155.747 53.9484C155.696 53.9484 155.645 53.9484 155.594 53.9484C155.543 53.9484 155.543 53.897 155.543 53.897L155.492 53.8457L154.98 52.3556H152.423L151.911 53.7943C151.911 53.8456 151.911 53.8457 151.86 53.8457L151.809 53.897C151.758 53.897 151.758 53.897 151.707 53.9484C151.655 53.9998 151.604 53.9484 151.502 53.9484C151.4 53.9484 151.349 53.9484 151.297 53.9484C151.246 53.9484 151.195 53.9484 151.195 53.897C151.195 53.8457 151.144 53.8456 151.144 53.7943C151.144 53.7429 151.144 53.6915 151.195 53.6401L153.19 48.0397C153.19 47.9884 153.241 47.9884 153.241 47.937C153.241 47.937 153.292 47.8856 153.343 47.8856C153.394 47.8856 153.446 47.8856 153.497 47.8342C153.548 47.8342 153.65 47.8342 153.701 47.8342C153.804 47.8342 153.906 47.8342 153.957 47.8342C154.008 47.8342 154.059 47.8342 154.111 47.8856C154.162 47.8856 154.162 47.937 154.213 47.937C154.213 47.937 154.264 47.9884 154.264 48.0397L156.259 53.6401ZM153.65 48.7077L152.627 51.7391H154.724L153.65 48.7077Z" fill="#CF3339"/>
<path d="M161.425 52.253C161.425 52.5613 161.374 52.7668 161.271 53.0237C161.169 53.2292 161.016 53.4348 160.862 53.5889C160.658 53.743 160.453 53.8458 160.197 53.9485C159.941 54.0513 159.686 54.0513 159.379 54.0513C159.174 54.0513 158.97 54.0513 158.816 53.9999C158.663 53.9485 158.509 53.9485 158.356 53.8972C158.202 53.8458 158.1 53.7944 157.998 53.743C157.896 53.6916 157.844 53.6403 157.793 53.5889C157.742 53.5375 157.742 53.4861 157.691 53.4347C157.691 53.3834 157.64 53.2806 157.64 53.2292C157.64 53.1779 157.64 53.1265 157.64 53.0751C157.64 53.0237 157.64 52.9723 157.691 52.9723C157.691 52.921 157.742 52.921 157.742 52.921H157.793C157.844 52.921 157.896 52.9723 157.998 53.0237C158.1 53.0751 158.202 53.1265 158.305 53.1779C158.407 53.2292 158.56 53.2806 158.765 53.332C158.918 53.3834 159.123 53.4347 159.379 53.4347C159.532 53.4347 159.686 53.4348 159.839 53.3834C159.993 53.332 160.095 53.2806 160.197 53.1779C160.299 53.0751 160.402 52.9723 160.453 52.8696C160.504 52.7668 160.555 52.6127 160.555 52.4585C160.555 52.3044 160.504 52.1503 160.453 51.9961C160.402 51.842 160.248 51.7906 160.146 51.6878C160.044 51.5851 159.89 51.5337 159.737 51.4309C159.583 51.3796 159.43 51.2768 159.225 51.174C159.072 51.0713 158.867 51.0199 158.714 50.9171C158.56 50.8144 158.407 50.7116 158.305 50.5575C158.202 50.4033 158.1 50.2492 157.998 50.0951C157.896 49.9409 157.896 49.684 157.896 49.4785C157.896 49.2216 157.947 49.0161 158.049 48.8106C158.151 48.6051 158.254 48.4509 158.407 48.2968C158.56 48.1426 158.765 48.0399 158.97 47.9885C159.174 47.9371 159.43 47.8857 159.686 47.8857C159.839 47.8857 159.941 47.8857 160.095 47.9371C160.248 47.9371 160.351 47.9885 160.453 48.0399C160.555 48.0913 160.658 48.1426 160.76 48.194C160.862 48.2454 160.913 48.2968 160.964 48.2968C161.016 48.3482 161.016 48.3482 161.016 48.3482V48.3995C161.016 48.3995 161.016 48.4509 161.016 48.5023C161.016 48.5537 161.016 48.6051 161.016 48.6564C161.016 48.7078 161.016 48.7592 161.016 48.8106C161.016 48.862 161.016 48.9133 161.016 48.9133C161.016 48.9647 161.016 48.9647 160.964 48.9647H160.913C160.862 48.9647 160.811 48.9647 160.76 48.9133C160.709 48.862 160.606 48.8106 160.504 48.7592C160.402 48.7078 160.299 48.6564 160.146 48.6051C159.993 48.5537 159.839 48.5537 159.686 48.5537C159.532 48.5537 159.379 48.5537 159.225 48.6051C159.123 48.6564 159.021 48.7078 158.918 48.7592C158.816 48.8106 158.765 48.9133 158.714 49.0161C158.663 49.1189 158.663 49.2216 158.663 49.3244C158.663 49.4785 158.714 49.6327 158.765 49.7354C158.867 49.8382 158.97 49.9409 159.072 50.0437C159.225 50.1465 159.328 50.1978 159.532 50.3006C159.686 50.4033 159.839 50.4547 160.044 50.5575C160.197 50.6602 160.402 50.7116 160.555 50.8144C160.709 50.9171 160.862 51.0199 161.016 51.174C161.169 51.3282 161.271 51.4309 161.322 51.6365C161.374 51.7906 161.425 51.9961 161.425 52.253Z" fill="#CF3339"/>
<path d="M163.317 15.1064C163.317 15.1578 163.317 15.1578 163.317 15.1578V15.2092C163.317 15.2092 163.317 15.2092 163.266 15.2605C163.266 15.2605 163.266 15.2605 163.215 15.2605H162.397V17.8809C162.397 17.8809 162.397 17.8809 162.397 17.9323C162.397 17.9323 162.397 17.9323 162.345 17.9323H162.294C162.243 17.9323 162.243 17.9323 162.192 17.9323C162.141 17.9323 162.141 17.9323 162.09 17.9323C162.039 17.9323 162.039 17.9323 162.039 17.9323H161.987C161.987 17.9323 161.987 17.9323 161.987 17.8809V15.2605H161.169C161.169 15.2605 161.169 15.2605 161.118 15.2605C161.118 15.2605 161.118 15.2605 161.118 15.2092V15.1578V15.1064C161.118 15.055 161.118 15.055 161.118 15.0036V14.9523C161.118 14.9523 161.118 14.9523 161.118 14.9009C161.118 14.9009 161.118 14.9009 161.169 14.9009H163.266C163.266 14.9009 163.266 14.9009 163.317 14.9009C163.317 14.9009 163.317 14.9009 163.368 14.9523V15.0036C163.317 15.055 163.317 15.055 163.317 15.1064Z" fill="#FF6C0E"/>
<path d="M167 17.88C167 17.9314 166.949 17.9314 166.949 17.9314H166.898C166.898 17.9314 166.846 17.9314 166.795 17.9314C166.744 17.9314 166.744 17.9314 166.693 17.9314C166.642 17.9314 166.642 17.9314 166.642 17.9314H166.591C166.591 17.9314 166.591 17.9314 166.591 17.88V15.2597L165.517 17.88C165.517 17.88 165.517 17.88 165.517 17.9314C165.517 17.9314 165.517 17.9314 165.465 17.9314H165.414C165.414 17.9314 165.363 17.9314 165.312 17.9314C165.261 17.9314 165.261 17.9314 165.21 17.9314H165.159H165.107C165.107 17.9314 165.107 17.9314 165.107 17.88L164.084 15.2597V17.88C164.084 17.88 164.084 17.88 164.084 17.9314C164.084 17.9314 164.084 17.9314 164.033 17.9314H163.982C163.931 17.9314 163.931 17.9314 163.88 17.9314C163.829 17.9314 163.829 17.9314 163.778 17.9314H163.726H163.675C163.675 17.9314 163.675 17.9314 163.675 17.88V15.1055C163.675 15.0542 163.675 15.0028 163.726 14.9514C163.778 14.9 163.778 14.9 163.829 14.9H164.084C164.136 14.9 164.187 14.9 164.238 14.9C164.289 14.9 164.289 14.9 164.34 14.9514C164.391 14.9514 164.391 15.0028 164.391 15.0028C164.391 15.0542 164.443 15.0542 164.443 15.1055L165.312 17.2635L166.182 15.1055C166.182 15.0542 166.233 15.0028 166.233 15.0028C166.233 14.9514 166.284 14.9514 166.284 14.9C166.284 14.9 166.335 14.8486 166.386 14.8486C166.437 14.8486 166.437 14.8486 166.488 14.8486H166.744H166.795C166.795 14.8486 166.847 14.8486 166.847 14.9L166.898 14.9514C166.898 14.9514 166.898 15.0028 166.898 15.0542V17.88H167Z" fill="#FF6C0E"/>
</svg>
